<svg width="200" height="200" viewBox="0 0 200 200" fill="none" xmlns="http://www.w3.org/2000/svg">
  <!-- Background Circle -->
  <circle cx="100" cy="100" r="90" fill="#2c3e50" />
  
  <!-- VPS Letters -->
  <path d="M50 70L70 130H85L105 70H90L80 110L70 70H50Z" fill="white" />
  <path d="M110 70C110 70 105 70 105 75V125C105 125 105 130 110 130H140C140 130 145 130 145 125V105H130V115H120V85H130V95H145V75C145 75 145 70 140 70H110Z" fill="white" />
  <path d="M150 70C150 70 145 70 145 75V125C145 125 145 130 150 130H180C180 130 185 130 185 125V115H170V115H160V85H170V95H185V75C185 75 185 70 180 70H150Z" fill="white" />
  
  <!-- AI Accent -->
  <circle cx="100" cy="100" r="30" fill="#3498db" />
  <path d="M85 90L100 115L115 90H85Z" fill="white" />
  <circle cx="100" cy="85" r="5" fill="white" />
</svg>